<?xml version="1.0" encoding="utf-8"?>
<!-- Generator: Adobe Illustrator 18.0.0, SVG Export Plug-In . SVG Version: 6.00 Build 0)  -->
<!DOCTYPE svg PUBLIC "-//W3C//DTD SVG 1.1//EN" "http://www.w3.org/Graphics/SVG/1.1/DTD/svg11.dtd">
<svg version="1.1" id="Layer_1" xmlns="http://www.w3.org/2000/svg" xmlns:xlink="http://www.w3.org/1999/xlink" x="0px" y="0px"
	 width="15px" height="30.7px" viewBox="0 0 15 30.7" style="enable-background:new 0 0 15 30.7;" xml:space="preserve">
<g>
	<path d="M14.9,10.9l-9,19.4c-0.1,0.3-0.4,0.4-0.7,0.4c-0.1,0-0.2,0-0.2,0c-0.4-0.1-0.6-0.5-0.5-0.8l3.3-13.5L1,18
		c-0.1,0-0.1,0-0.2,0c-0.2,0-0.4-0.1-0.5-0.2C0,17.7,0,17.4,0,17.2L3.4,3.4C3.5,3,3.8,2.8,4.1,2.8h5.5c0.4,0,0.8,0.3,0.8,0.7
		c0,0.1,0,0.2-0.1,0.3l-2.9,7.8L14,9.9c0.1,0,0.1,0,0.2,0c0.2,0,0.4,0.1,0.6,0.3C15,10.4,15,10.6,14.9,10.9z"/>
</g>
<g>
</g>
<g>
</g>
<g>
</g>
<g>
</g>
<g>
</g>
<g>
</g>
</svg>
