<?xml version="1.0" encoding="utf-8"?>
<!-- Generator: Adobe Illustrator 18.0.0, SVG Export Plug-In . SVG Version: 6.00 Build 0)  -->
<!DOCTYPE svg PUBLIC "-//W3C//DTD SVG 1.1//EN" "http://www.w3.org/Graphics/SVG/1.1/DTD/svg11.dtd">
<svg version="1.1" id="Layer_1" xmlns="http://www.w3.org/2000/svg" xmlns:xlink="http://www.w3.org/1999/xlink" x="0px" y="0px"
	 width="25.7px" height="30.7px" viewBox="0 0 25.7 30.7" style="enable-background:new 0 0 25.7 30.7;" xml:space="preserve">
<g>
	<path d="M24.9,16.3C25,16.6,25,17,25,17.4c0,0.8-0.2,1.7-0.6,2.4c0,0.2,0.1,0.5,0.1,0.7c0,1.1-0.4,2.1-1,3c0,3.2-2.1,5-5.2,5h-0.6
		h-1.6c-2.4,0-4.6-0.7-6.8-1.5c-0.5-0.2-1.8-0.7-2.3-0.7H2.1c-1.2,0-2.1-1-2.1-2.1V13.5c0-1.2,1-2.1,2.1-2.1h4.6
		C7.4,11,8.5,9.5,9,8.8c0.6-0.7,1.2-1.5,1.8-2.1c1-1.1,0.5-3.7,2.1-5.4c0.4-0.4,0.9-0.6,1.5-0.6c1.7,0,3.4,0.6,4.2,2.2
		c0.5,1,0.6,2,0.6,3.1c0,1.2-0.3,2.2-0.8,3.2h2.9c2.3,0,4.3,2,4.3,4.3C25.7,14.5,25.4,15.5,24.9,16.3z M3.2,22.1
		c-0.6,0-1.1,0.5-1.1,1.1s0.5,1.1,1.1,1.1s1.1-0.5,1.1-1.1S3.8,22.1,3.2,22.1z M21.4,11.4h-5.9c0-2,1.6-3.4,1.6-5.4
		c0-2-0.4-3.2-2.7-3.2c-1.1,1.1-0.5,3.6-2.1,5.4c-0.5,0.5-0.9,1-1.3,1.5c-0.8,1-2.7,3.8-4.1,3.8H6.4v10.7H7c0.9,0,2.5,0.6,3.4,0.9
		c1.8,0.6,3.7,1.2,5.7,1.2h2c1.9,0,3.2-0.8,3.2-2.8c0-0.3,0-0.6-0.1-0.9c0.7-0.4,1.1-1.3,1.1-2.1c0-0.4-0.1-0.8-0.3-1.2
		c0.6-0.5,0.9-1.2,0.9-2c0-0.5-0.2-1.3-0.6-1.7c0.8,0,1.3-1.5,1.3-2.1C23.6,12.4,22.5,11.4,21.4,11.4z"/>
</g>
<g>
</g>
<g>
</g>
<g>
</g>
<g>
</g>
<g>
</g>
<g>
</g>
</svg>
