<?xml version="1.0" encoding="utf-8"?>
<!-- Generator: Adobe Illustrator 18.0.0, SVG Export Plug-In . SVG Version: 6.00 Build 0)  -->
<!DOCTYPE svg PUBLIC "-//W3C//DTD SVG 1.1//EN" "http://www.w3.org/Graphics/SVG/1.1/DTD/svg11.dtd">
    <svg version="1.1"
id="Layer_1"
    xmlns="http://www.w3.org/2000/svg"
xmlns:xlink="http://www.w3.org/1999/xlink"
x="0px" y="0px"
	 width="34.3px"
	 height="30.7px"
	 viewBox="0 0 34.3 30.7"
style="enable-background:new 0 0 34.3 30.7;" xml:space="preserve">
	<path d="M34.1,11.8c0.3,0.4,0.3,1-0.1,1.4L17.9,30.4c-0.2,0.2-0.5,0.3-0.8,0.3s-0.6-0.1-0.8-0.3L0.3,13.2c-0.4-0.4-0.4-1-0.1-1.4
		l6.4-8.6C6.8,3,7.2,2.8,7.5,2.8h19.3c0.3,0,0.7,0.2,0.9,0.4L34.1,11.8z M12.4,5H8l-4.8,6.4H9L12.4,5z M14,24.7L9,13.5H3.6L14,24.7z
		 M23,13.5H11.3l5.8,12.9L23,13.5z M22.9,11.4L19.4,5h-4.6l-3.4,6.4H22.9z M30.7,13.5h-5.4l-5,11.1L30.7,13.5z M31.1,11.4L26.2,5
		h-4.4l3.4,6.4H31.1z"/>
</svg>
