<svg version="1.1" \id="Layer_1"
xmlns="http://www.w3.org/2000/svg"
xmlns:xlink="http://www.w3.org/1999/xlink"
x="0px"
y="0px"
	 width="35.1px"
	 height="35.1px"
	 viewBox="0 0 35.1 35.1"
	 style="enable-background:new 0 0 35.1 35.1;"
	 xml:space="preserve">

	<path d="M31.2,31.6c0,0.6-0.5,1.1-1.1,1.1H5c-0.6,0-1.1-0.5-1.1-1.1V23c0-0.6,0.2-1.6,0.4-2.2l4.2-9.9c0.3-0.6,1-1.1,1.6-1.1H25
		c0.6,0,1.3,0.5,1.6,1.1l4.2,9.9c0.3,0.6,0.4,1.6,0.4,2.2V31.6z M27.7,22.4c0-0.1-0.1-0.2-0.1-0.3l-3.8-8.9H11.2l-3.8,8.9
		c0,0.1-0.1,0.2-0.1,0.3H13l1.7,3.4h5.7l1.7-3.4H27.7z"/>
</svg>
