<?xml version="1.0" encoding="utf-8"?>
<!-- Generator: Adobe Illustrator 18.0.0, SVG Export Plug-In . SVG Version: 6.00 Build 0)  -->
<!DOCTYPE svg PUBLIC "-//W3C//DTD SVG 1.1//EN" "http://www.w3.org/Graphics/SVG/1.1/DTD/svg11.dtd">
<svg version="1.1" id="Layer_1" xmlns="http://www.w3.org/2000/svg" xmlns:xlink="http://www.w3.org/1999/xlink" x="0px" y="0px"
	 width="18.1px" height="23.5px" viewBox="0 0 18.1 23.5" style="enable-background:new 0 0 18.1 23.5;" xml:space="preserve">
<g>
	<path d="M17.7,18.2c-0.3,0.6-1,1-1.6,1.4c-0.8,0.4-1.5,0.7-2.4,0.7c-1.2,0-2.3-0.5-3.4-0.9c-0.8-0.3-1.5-0.6-2.2-1.1
		c-2.2-1.3-4.8-4-6.2-6.2c-0.4-0.7-0.8-1.5-1.1-2.2C0.5,8.8,0,7.7,0,6.5c0-0.9,0.2-1.6,0.7-2.4C1,3.6,1.4,2.8,2,2.6
		c0.4-0.2,1.3-0.4,1.8-0.4c0.1,0,0.2,0,0.3,0c0.3,0.1,0.6,0.7,0.7,1C5.2,3.9,5.6,4.7,6,5.4c0.2,0.3,0.6,0.7,0.6,1.1
		c0,0.8-2.3,1.9-2.3,2.6c0,0.3,0.3,0.8,0.5,1.1c1.3,2.3,2.9,4,5.2,5.2c0.3,0.2,0.8,0.5,1.1,0.5c0.7,0,1.8-2.3,2.6-2.3
		c0.4,0,0.8,0.4,1.1,0.6c0.7,0.4,1.5,0.8,2.2,1.2c0.3,0.1,0.9,0.4,1,0.7c0,0.1,0,0.2,0,0.3C18.1,16.9,17.9,17.8,17.7,18.2z"/>
</g>
<g>
</g>
<g>
</g>
<g>
</g>
<g>
</g>
<g>
</g>
<g>
</g>
</svg>
