<svg version="1.1" id="Layer_1"
xmlns="http://www.w3.org/2000/svg"
xmlns:xlink="http://www.w3.org/1999/xlink"
x="0px" y="0px"
	 width="40px"
	 height="40px"
	 viewBox="0 0 40 40">

	<path d="M7.9,23.2c-1.3,0-2.3-1-2.3-2.3s1-2.3,2.3-2.3s2.3,1,2.3,2.3S9.2,23.2,7.9,23.2z M11.6,14.9c-1.6,0-2.9-1.3-2.9-2.9
		c0-1.6,1.3-2.9,2.9-2.9c1.6,0,2.9,1.3,2.9,2.9C14.4,13.6,13.2,14.9,11.6,14.9z M11.6,32.1c-1.2,0-2.3-1-2.3-2.3
		c0-1.3,1-2.3,2.3-2.3c1.3,0,2.3,1,2.3,2.3C13.9,31.1,12.8,32.1,11.6,32.1z M20.5,11.8c-1.9,0-3.4-1.5-3.4-3.4S18.6,5,20.5,5
		s3.4,1.5,3.4,3.4S22.4,11.8,20.5,11.8z M20.5,35.8c-1.3,0-2.3-1-2.3-2.3s1-2.3,2.3-2.3s2.3,1,2.3,2.3S21.7,35.8,20.5,35.8z
		 M29.4,16.1c-2.2,0-4-1.8-4-4c0-2.2,1.8-4,4-4c2.2,0,4,1.8,4,4C33.4,14.3,31.6,16.1,29.4,16.1z M29.4,32.1c-1.3,0-2.3-1-2.3-2.3
		c0-1.3,1-2.3,2.3-2.3c1.2,0,2.3,1,2.3,2.3C31.6,31.1,30.6,32.1,29.4,32.1z M33,23.2c-1.3,0-2.3-1-2.3-2.3s1-2.3,2.3-2.3
		c1.3,0,2.3,1,2.3,2.3S34.3,23.2,33,23.2z"/>
</svg>
