<svg version="1.1"
 baseProfile="full"
xmlns="http://www.w3.org/2000/svg"

x="0px" y="0px"
	 width="25px" height="25.6px"
	 viewBox="0 0 25 25.6"
	 style="enable-background:new 0 0 25 25.6;"
	 xml:space="preserve">

	<path d="M2.7,14.9c-1,0-1.8-0.8-1.8-1.8s0.8-1.8,1.8-1.8s1.8,0.8,1.8,1.8S3.7,14.9,2.7,14.9z M5.6,8.4c-1.2,0-2.2-1-2.2-2.2
		c0-1.2,1-2.2,2.2-2.2c1.2,0,2.2,1,2.2,2.2C7.8,7.4,6.8,8.4,5.6,8.4z M5.6,21.8c-1,0-1.8-0.8-1.8-1.8c0-1,0.8-1.8,1.8-1.8
		c1,0,1.8,0.8,1.8,1.8C7.3,21,6.5,21.8,5.6,21.8z M12.5,5.9c-1.5,0-2.7-1.2-2.7-2.7s1.2-2.7,2.7-2.7s2.7,1.2,2.7,2.7
		S14,5.9,12.5,5.9z M12.5,24.7c-1,0-1.8-0.8-1.8-1.8s0.8-1.8,1.8-1.8s1.8,0.8,1.8,1.8S13.5,24.7,12.5,24.7z M19.4,9.3
		c-1.7,0-3.1-1.4-3.1-3.1c0-1.7,1.4-3.1,3.1-3.1c1.7,0,3.1,1.4,3.1,3.1C22.6,7.9,21.2,9.3,19.4,9.3z M19.4,21.8
		c-1,0-1.8-0.8-1.8-1.8c0-1,0.8-1.8,1.8-1.8c1,0,1.8,0.8,1.8,1.8C21.2,21,20.4,21.8,19.4,21.8z M22.3,14.9c-1,0-1.8-0.8-1.8-1.8
		s0.8-1.8,1.8-1.8s1.8,0.8,1.8,1.8S23.3,14.9,22.3,14.9z"/>
</svg>
