<svg version="1.1"
 baseProfile="
xmlns="http://www.w3.org/2000/svg"
xmlns:xlink="http://www.w3.org/1999/xlink"
x="0px" y="0px"
	 width="21.4px"
	 height="25.6px"
	 viewBox="0 0 21.4 25.6"

	<path d="M10.7,23.8C4.8,23.8,0,19,0,13.1S4.8,2.4,10.7,2.4s10.7,4.8,10.7,10.7S16.6,23.8,10.7,23.8z M10.7,4.1
		c-4.9,0-8.9,4-8.9,8.9s4,8.9,8.9,8.9s8.9-4,8.9-8.9S15.6,4.1,10.7,4.1z M7.1,11.3c-1,0-1.8-0.8-1.8-1.8s0.8-1.8,1.8-1.8
		s1.8,0.8,1.8,1.8S8.1,11.3,7.1,11.3z M10.7,19.3c-2.4,0-4.4-1.5-5.1-3.8c-0.2-0.5,0.1-1,0.6-1.1c0.5-0.2,1,0.1,1.1,0.6
		c0.5,1.5,1.8,2.5,3.4,2.5s2.9-1,3.4-2.5c0.2-0.5,0.7-0.7,1.1-0.6c0.5,0.2,0.7,0.6,0.6,1.1C15.1,17.8,13.1,19.3,10.7,19.3z
		 M14.3,11.3c-1,0-1.8-0.8-1.8-1.8s0.8-1.8,1.8-1.8s1.8,0.8,1.8,1.8S15.3,11.3,14.3,11.3z"/>
</svg>
