<?xml version="1.0" encoding="utf-8"?>
<!-- Generator: Adobe Illustrator 18.0.0, SVG Export Plug-In . SVG Version: 6.00 Build 0)  -->
<!DOCTYPE svg PUBLIC "-//W3C//DTD SVG 1.1//EN" "http://www.w3.org/Graphics/SVG/1.1/DTD/svg11.dtd">
<svg version="1.1" id="Layer_1" xmlns="http://www.w3.org/2000/svg" xmlns:xlink="http://www.w3.org/1999/xlink" x="0px" y="0px"
	 width="27.9px" height="30.7px" viewBox="0 0 27.9 30.7" style="enable-background:new 0 0 27.9 30.7;" xml:space="preserve">
<g>
	<path d="M27.9,28.5c0,1.2-1,2.1-2.1,2.1H2.1c-1.2,0-2.1-1-2.1-2.1V7.1C0,5.9,1,5,2.1,5h2.1V3.4c0-1.5,1.2-2.7,2.7-2.7H8
		c1.5,0,2.7,1.2,2.7,2.7V5h6.4V3.4c0-1.5,1.2-2.7,2.7-2.7h1.1c1.5,0,2.7,1.2,2.7,2.7V5h2.1c1.2,0,2.1,1,2.1,2.1V28.5z M7,16.2v-4.8
		H2.1v4.8H7z M7,22.7v-5.4H2.1v5.4H7z M7,28.5v-4.8H2.1v4.8H7z M8.6,3.4c0-0.3-0.3-0.5-0.5-0.5H7c-0.3,0-0.5,0.3-0.5,0.5v4.8
		c0,0.3,0.3,0.5,0.5,0.5H8c0.3,0,0.5-0.3,0.5-0.5V3.4z M13.4,16.2v-4.8H8v4.8H13.4z M13.4,22.7v-5.4H8v5.4H13.4z M13.4,28.5v-4.8H8
		v4.8H13.4z M19.8,16.2v-4.8h-5.4v4.8H19.8z M19.8,22.7v-5.4h-5.4v5.4H19.8z M19.8,28.5v-4.8h-5.4v4.8H19.8z M21.4,3.4
		c0-0.3-0.3-0.5-0.5-0.5h-1.1c-0.3,0-0.5,0.3-0.5,0.5v4.8c0,0.3,0.3,0.5,0.5,0.5h1.1c0.3,0,0.5-0.3,0.5-0.5V3.4z M25.7,16.2v-4.8
		h-4.8v4.8H25.7z M25.7,22.7v-5.4h-4.8v5.4H25.7z M25.7,28.5v-4.8h-4.8v4.8H25.7z"/>
</g>
<g>
</g>
<g>
</g>
<g>
</g>
<g>
</g>
<g>
</g>
<g>
</g>
</svg>
