<?xml version="1.0" encoding="utf-8"?>
<!-- Generator: Adobe Illustrator 18.0.0, SVG Export Plug-In . SVG Version: 6.00 Build 0)  -->
<!DOCTYPE svg PUBLIC "-//W3C//DTD SVG 1.1//EN" "http://www.w3.org/Graphics/SVG/1.1/DTD/svg11.dtd">
<svg version="1.1" id="Layer_1" xmlns="http://www.w3.org/2000/svg" xmlns:xlink="http://www.w3.org/1999/xlink" x="0px" y="0px"
	 width="30px" height="30.7px" viewBox="0 0 30 30.7" style="enable-background:new 0 0 30 30.7;" xml:space="preserve">
<g>
	<path d="M27.6,28.1c-0.2,0.3-0.5,0.5-0.9,0.5H3.3c-0.4,0-0.7-0.2-0.9-0.5C0.8,25.6,0,22.9,0,20C0,11.7,6.7,5,15,5s15,6.7,15,15
		C30,22.9,29.2,25.6,27.6,28.1z M4.3,17.8c-1.2,0-2.1,1-2.1,2.1s1,2.1,2.1,2.1s2.1-1,2.1-2.1S5.5,17.8,4.3,17.8z M7.5,10.3
		c-1.2,0-2.1,1-2.1,2.1s1,2.1,2.1,2.1s2.1-1,2.1-2.1S8.7,10.3,7.5,10.3z M18.5,14.1c0.1-0.6-0.2-1.2-0.8-1.3
		c-0.6-0.2-1.2,0.2-1.3,0.8L14.7,20c-1.3,0.1-2.5,1-2.8,2.4c-0.5,1.7,0.6,3.5,2.3,3.9c1.7,0.5,3.5-0.6,3.9-2.3
		c0.4-1.4-0.2-2.7-1.3-3.5L18.5,14.1z M15,7.1c-1.2,0-2.1,1-2.1,2.1s1,2.1,2.1,2.1s2.1-1,2.1-2.1S16.2,7.1,15,7.1z M22.5,10.3
		c-1.2,0-2.1,1-2.1,2.1s1,2.1,2.1,2.1s2.1-1,2.1-2.1S23.7,10.3,22.5,10.3z M25.7,17.8c-1.2,0-2.1,1-2.1,2.1s1,2.1,2.1,2.1
		s2.1-1,2.1-2.1S26.9,17.8,25.7,17.8z"/>
</g>
<g>
</g>
<g>
</g>
<g>
</g>
<g>
</g>
<g>
</g>
<g>
</g>
</svg>
